<svg xmlns="http://www.w3.org/2000/svg" width="160" height="80.439"><defs><style>.a{fill:#fff}.b{fill:#960a9d}</style></defs><path class="a" d="M81.702 2.931c.229 0 .468.007.712.021h.104l6.514.135c.97 3.769 3.323 13.562 3.207 19.379-.105 5.207-1.175 5.872-5.157 8.347-.774.481-1.651 1.026-2.6 1.657-2.113 1.408-3.567 2.3-4.488 3.607-.922-1.309-2.377-2.2-4.49-3.607a91.329 91.329 0 0 0-2.6-1.657c-3.982-2.475-5.052-3.14-5.156-8.347-.118-5.819 2.236-15.608 3.207-19.379l6.514-.135h.104c.248-.014.481-.021.713-.021h3.416m0-2.931h-3.414c-.293 0-.585.009-.876.026l-7.15.149a2.024 2.024 0 0 0-1.956 1.513c-1.024 3.891-3.6 14.39-3.474 20.843.162 8.038 3.156 8.455 9.059 12.387 2.956 1.97 3.96 3.323 4.3 4.392.891 1.887 1.67 5.061 1.8 10.416.134-5.355.913-8.529 1.8-10.416.342-1.069 1.346-2.422 4.3-4.392 5.9-3.932 8.9-4.349 9.06-12.387.129-6.452-2.451-16.952-3.474-20.843A2.025 2.025 0 0 0 89.72.175L82.57.026A15.981 15.981 0 0 0 81.694 0zM9.35 51.214h6.848v.548a11.318 11.318 0 0 1-.44 3.306 7.024 7.024 0 0 1-1.448 2.49 7.508 7.508 0 0 1-5.872 2.6 8.072 8.072 0 0 1-5.958-2.512 8.651 8.651 0 0 1 9.811-13.9 10.471 10.471 0 0 1 3.167 2.576l-1.782 1.707a6.048 6.048 0 0 0-4.97-2.715 5.938 5.938 0 0 0-4.412 1.814 6.058 6.058 0 0 0-1.782 4.465 6.227 6.227 0 0 0 6.011 6.226 5 5 0 0 0 3.317-1.245 4.428 4.428 0 0 0 1.642-3.006H9.35zM24.961 52.782l5.131 7.064H27.03l-4.734-6.784h-.451v6.784h-2.5V43.27h2.93q3.285 0 4.745 1.234a4.535 4.535 0 0 1 1.61 3.628 4.712 4.712 0 0 1-1.009 3.027 4.5 4.5 0 0 1-2.66 1.623zm-3.113-1.9h.794q3.553 0 3.553-2.716 0-2.544-3.456-2.544h-.891zM42.312 55.817h-7.1l-1.846 4.026h-2.694l8.2-17.616 7.911 17.616h-2.737zm-1.02-2.351l-2.458-5.636-2.576 5.636zM51.365 53.114v6.731h-2.5V43.27h2.834a12.789 12.789 0 0 1 3.145.29 4.215 4.215 0 0 1 1.889 1.1 4.718 4.718 0 0 1 1.428 3.521 4.545 4.545 0 0 1-1.522 3.601 6.033 6.033 0 0 1-4.111 1.331zm0-2.318h.934q3.445 0 3.446-2.651 0-2.566-3.553-2.566h-.826zM69.882 45.621h-6.645v3.982h6.452v2.351h-6.452v5.539h6.645v2.351h-9.146V43.27h9.146zM96.419 45.621v14.224h-2.5V45.621h-3.808V43.27h10.112v2.351zM101.625 51.482a8.118 8.118 0 0 1 2.565-6.011 8.444 8.444 0 0 1 6.14-2.512 8.668 8.668 0 0 1 8.62 8.62 8.149 8.149 0 0 1-2.555 6.065 8.757 8.757 0 0 1-11.958.279 8.143 8.143 0 0 1-2.812-6.441zm2.522.032a5.991 5.991 0 0 0 1.846 4.519 6.116 6.116 0 0 0 8.641-.032 6.432 6.432 0 0 0 .022-8.888 6.182 6.182 0 0 0-8.727 0 5.981 5.981 0 0 0-1.783 4.401zM122.915 43.27l4.315 11.078 4.508-11.883 4.315 11.883 4.584-11.078h2.716l-7.407 17.627-4.261-11.744-4.444 11.754-7.042-17.637zM145.411 59.845v-17.7l12.088 12.643V43.27h2.5v17.584l-12.087-12.613v11.6z"/><path class="b" d="M80.006 51.006s-2.616 4.8-2.616 6.236a2.616 2.616 0 0 0 5.233 0c0-1.438-2.617-6.236-2.617-6.236"/><path class="a" d="M67.402 75.816l.628 1.484 1.6.137a.127.127 0 0 1 .071.222l-1.217 1.055.364 1.569a.126.126 0 0 1-.188.137l-1.38-.832-1.38.832a.126.126 0 0 1-.188-.137l.364-1.569-1.218-1.055a.127.127 0 0 1 .073-.222l1.6-.137.628-1.484a.125.125 0 0 1 .232 0zm0 0M92.814 75.816l.628 1.484 1.6.137a.127.127 0 0 1 .071.222l-1.217 1.055.365 1.569a.126.126 0 0 1-.188.137l-1.38-.832-1.38.832a.126.126 0 0 1-.188-.137l.365-1.569-1.218-1.055a.127.127 0 0 1 .073-.222l1.6-.137.628-1.484a.126.126 0 0 1 .232 0zm0 0M84.345 75.816l.628 1.484 1.6.137a.127.127 0 0 1 .071.222l-1.217 1.055.364 1.569a.126.126 0 0 1-.188.137l-1.38-.832-1.38.832a.126.126 0 0 1-.188-.137l.365-1.569-1.218-1.055a.127.127 0 0 1 .073-.222l1.6-.137.628-1.484a.125.125 0 0 1 .232 0zm0 0M75.876 75.816l.628 1.484 1.6.137a.127.127 0 0 1 .071.222l-1.217 1.055.365 1.569a.126.126 0 0 1-.188.137l-1.38-.832-1.38.832a.126.126 0 0 1-.188-.137l.365-1.569-1.218-1.055a.127.127 0 0 1 .073-.222l1.6-.137.628-1.484a.126.126 0 0 1 .232 0zm0 0"/><path class="b" d="M62.069 68.005h3.813v-3.458h1.334v8.839h-1.334v-4.127h-3.813v4.127h-1.334v-8.839h1.334zM69.949 68.927a4.33 4.33 0 0 1 1.368-3.206 4.5 4.5 0 0 1 3.275-1.34 4.623 4.623 0 0 1 4.6 4.6 4.346 4.346 0 0 1-1.363 3.235 4.671 4.671 0 0 1-6.378.149 4.343 4.343 0 0 1-1.502-3.438zm1.345.017a3.2 3.2 0 0 0 .985 2.41 3.262 3.262 0 0 0 4.609-.017 3.431 3.431 0 0 0 .011-4.74 3.3 3.3 0 0 0-4.655 0 3.19 3.19 0 0 0-.95 2.347zM84.36 65.801v7.586h-1.334v-7.586h-2.033v-1.254h5.393v1.254zM93.511 65.801h-3.544v2.124h3.44v1.254h-3.44v2.954h3.544v1.254h-4.878v-8.839h4.878zM97.62 64.547v7.586h2.6v1.254h-3.933v-8.839z"/><path d="M80.486 16.332s-.769-8.265 5.91-8.889 7.977-1.345 8.7-4.949c.144 3.892 1.153 14.367-13.119 14.848 2.018-1.105 4.758-4.325 4.468-7.208-1.1 2.643-3.106 5.623-5.957 6.2" fill="#1f791f"/><path class="b" d="M89.625 22.334a4.583 4.583 0 1 1-4.583-4.583 4.583 4.583 0 0 1 4.583 4.583M79.532 22.334a4.583 4.583 0 1 1-4.583-4.583 4.583 4.583 0 0 1 4.583 4.583M79.532 12.758a4.583 4.583 0 1 1-4.583-4.583 4.583 4.583 0 0 1 4.583 4.583"/></svg>